<?xml version="1.0" encoding="UTF-8"?>
<svg width="242px" height="226px" viewBox="0 0 242 226" version="1.1" xmlns="http://www.w3.org/2000/svg" xmlns:xlink="http://www.w3.org/1999/xlink">
    <!-- Generator: Sketch 52.3 (67297) - http://www.bohemiancoding.com/sketch -->
    <title>brand-icon</title>
    <desc>Created with Sketch.</desc>
    <defs>
        <linearGradient x1="100%" y1="0.868511057%" x2="2.0660224%" y2="97.9519212%" id="linearGradient-1">
            <stop stop-color="#FFFFFF" offset="0%"></stop>
            <stop stop-color="#FFFFFF" offset="21.8862987%"></stop>
            <stop stop-color="#FFFFFF" offset="40.220465%"></stop>
            <stop stop-color="#FFFFFF" offset="100%"></stop>
        </linearGradient>
        <linearGradient x1="100%" y1="0.868511057%" x2="0%" y2="100%" id="linearGradient-2">
            <stop stop-color="#FFA32A" offset="0%"></stop>
            <stop stop-color="#FE9C24" offset="21.8862987%"></stop>
            <stop stop-color="#FE941D" offset="40.220465%"></stop>
            <stop stop-color="#FF7C01" offset="100%"></stop>
        </linearGradient>
        <polygon id="path-3" points="191 131.789174 212.691532 123.299145 212.691532 123.014245 191 114.267806 191 108 220 120.279202 220 125.663818 191 138"></polygon>
        <filter x="-100.0%" y="-110.0%" width="300.0%" height="293.3%" filterUnits="objectBoundingBox" id="filter-4">
            <feOffset dx="0" dy="-4" in="SourceAlpha" result="shadowOffsetOuter1"></feOffset>
            <feGaussianBlur stdDeviation="9" in="shadowOffsetOuter1" result="shadowBlurOuter1"></feGaussianBlur>
            <feColorMatrix values="0 0 0 0 0.329411765   0 0 0 0 0.670588235   0 0 0 0 1  0 0 0 0.148352582 0" type="matrix" in="shadowBlurOuter1"></feColorMatrix>
        </filter>
        <polygon id="path-5" points="41 113.239316 19.3084677 121.729345 19.3084677 121.985755 41 130.732194 41 137 12 124.720798 12 119.336182 41 107"></polygon>
        <filter x="-100.0%" y="-110.0%" width="300.0%" height="293.3%" filterUnits="objectBoundingBox" id="filter-6">
            <feOffset dx="0" dy="-4" in="SourceAlpha" result="shadowOffsetOuter1"></feOffset>
            <feGaussianBlur stdDeviation="9" in="shadowOffsetOuter1" result="shadowBlurOuter1"></feGaussianBlur>
            <feColorMatrix values="0 0 0 0 0.329411765   0 0 0 0 0.670588235   0 0 0 0 1  0 0 0 0.148352582 0" type="matrix" in="shadowBlurOuter1"></feColorMatrix>
        </filter>
        <path d="M102,128.80315 L102,111.052868 L105.57308,111.052868 L105.57308,114.073116 L105.659806,114.073116 C106.266883,111.99775 107.897317,110.766029 110.048104,110.766029 C110.5858,110.766029 111.054117,110.850394 111.331637,110.901012 L111.331637,114.292463 C111.036772,114.174353 110.37766,114.089989 109.649167,114.089989 C107.238205,114.089989 105.746531,115.659168 105.746531,118.173228 L105.746531,128.80315 L102,128.80315 Z M113.655874,128.80315 L113.655874,111.052868 L117.228955,111.052868 L117.228955,114.022497 L117.31568,114.022497 C118.304348,111.99775 120.246994,110.749156 123.056892,110.749156 C127.080944,110.749156 129.387835,113.246344 129.387835,117.312711 L129.387835,128.80315 L125.623959,128.80315 L125.623959,118.021372 C125.623959,115.355456 124.340426,113.887514 121.738668,113.887514 C119.10222,113.887514 117.402405,115.709786 117.402405,118.460067 L117.402405,128.80315 L113.655874,128.80315 Z M133.117021,128.80315 L133.117021,111.052868 L136.863552,111.052868 L136.863552,128.80315 L133.117021,128.80315 Z M134.990287,108.184477 C133.793478,108.184477 132.822155,107.239595 132.822155,106.092238 C132.822155,104.928009 133.793478,104 134.990287,104 C136.187095,104 137.141073,104.928009 137.141073,106.092238 C137.141073,107.239595 136.187095,108.184477 134.990287,108.184477 Z M148.328631,113.668166 C145.709528,113.668166 143.870953,115.608549 143.680157,118.291339 L152.803654,118.291339 C152.716929,115.574803 150.947734,113.668166 148.328631,113.668166 Z M152.786309,123.589426 L156.342044,123.589426 C155.821693,126.829021 152.664894,129.140607 148.484736,129.140607 C143.125116,129.140607 139.881591,125.614173 139.881591,120.012373 C139.881591,114.444319 143.177151,110.732283 148.328631,110.732283 C153.393386,110.732283 156.550185,114.208099 156.550185,119.590551 L156.550185,120.839145 L143.662812,120.839145 L143.662812,121.058493 C143.662812,124.146232 145.570768,126.187852 148.571462,126.187852 C150.704903,126.187852 152.283302,125.141732 152.786309,123.589426 Z M168.119334,134 L164.789084,134 L173.66975,104.455568 L177,104.455568 L168.119334,134 Z" id="path-7"></path>
        <filter x="-38.7%" y="-110.0%" width="177.3%" height="293.3%" filterUnits="objectBoundingBox" id="filter-8">
            <feOffset dx="0" dy="-4" in="SourceAlpha" result="shadowOffsetOuter1"></feOffset>
            <feGaussianBlur stdDeviation="9" in="shadowOffsetOuter1" result="shadowBlurOuter1"></feGaussianBlur>
            <feColorMatrix values="0 0 0 0 0.329411765   0 0 0 0 0.670588235   0 0 0 0 1  0 0 0 0.148352582 0" type="matrix" in="shadowBlurOuter1"></feColorMatrix>
        </filter>
    </defs>
    <g id="Page-1" stroke="none" stroke-width="1" fill="none" fill-rule="evenodd">
        <g id="Color-palette" transform="translate(-163.000000, -760.000000)">
            <g id="brand-icon" transform="translate(168.000000, 760.000000)">
                <circle id="Oval" fill="#663399" cx="113" cy="113" r="113"></circle>
                <g id="Group" transform="translate(44.000000, 10.000000)" fill="url(#linearGradient-1)" opacity="0.962588356">
                    <path d="M3.00679444,49.0884354 L44.3220448,49.0884354 C46.5311838,49.0884354 48.3220448,50.8792964 48.3220448,53.0884354 L48.3220448,58.5354362 C48.3220448,60.7116492 46.5822619,62.488577 44.4065343,62.5345437 L16.3415574,63.1274748 C14.1658299,63.1734416 12.4260469,64.9503693 12.4260469,67.1265824 L12.4260469,74.0972695 C12.4260469,74.8579204 12.6429318,75.6028027 13.0512664,76.2445601 L15.9022557,80.7253058 C17.554222,83.3216118 20.4182082,84.8939021 23.4955118,84.8939021 L48.3220448,84.8939021 L48.3220448,97.130219 L26.4342412,97.130219 L36.4705845,112.687812 C38.1279277,115.256902 40.9761463,116.808949 44.0334344,116.808949 L48.3220448,116.808949 L48.3220448,126.132401 C48.3220448,126.960828 47.650472,127.632401 46.8220448,127.632401 C46.3107569,127.632401 45.8346819,127.371969 45.55892,126.941422 L-0.361538476,55.2458258 C-1.5530323,53.3855469 -1.01087487,50.9115963 0.849404034,49.7201025 C1.49336755,49.307649 2.24206776,49.0884354 3.00679444,49.0884354 Z" id="Path-4"></path>
                </g>
                <g id="&gt;">
                    <use fill="black" fill-opacity="1" filter="url(#filter-4)" xlink:href="#path-3"></use>
                    <use fill="#1028F6" fill-rule="evenodd" xlink:href="#path-3"></use>
                    <use fill="url(#linearGradient-2)" fill-rule="evenodd" xlink:href="#path-3"></use>
                </g>
                <g id="&lt;">
                    <use fill="black" fill-opacity="1" filter="url(#filter-6)" xlink:href="#path-5"></use>
                    <use fill="#1028F6" fill-rule="evenodd" xlink:href="#path-5"></use>
                    <use fill="url(#linearGradient-2)" fill-rule="evenodd" xlink:href="#path-5"></use>
                </g>
                <g id="rnie-/">
                    <use fill="black" fill-opacity="1" filter="url(#filter-8)" xlink:href="#path-7"></use>
                    <use fill="#1028F6" fill-rule="evenodd" xlink:href="#path-7"></use>
                    <use fill="url(#linearGradient-2)" fill-rule="evenodd" xlink:href="#path-7"></use>
                </g>
            </g>
        </g>
    </g>
</svg>