<?xml version="1.0" encoding="UTF-8"?>
<svg width="220px" height="83px" viewBox="0 0 220 83" version="1.1" xmlns="http://www.w3.org/2000/svg" xmlns:xlink="http://www.w3.org/1999/xlink">
    <!-- Generator: Sketch 52.3 (67297) - http://www.bohemiancoding.com/sketch -->
    <title>brand</title>
    <desc>Created with Sketch.</desc>
    <defs>
        <linearGradient x1="100%" y1="0.868511057%" x2="2.0660224%" y2="97.9519212%" id="linearGradient-1">
            <stop stop-color="#FFFFFF" offset="0%"></stop>
            <stop stop-color="#FFFFFF" offset="21.8862987%"></stop>
            <stop stop-color="#FFFFFF" offset="40.220465%"></stop>
            <stop stop-color="#FFFFFF" offset="100%"></stop>
        </linearGradient>
        <linearGradient x1="100%" y1="0.868511057%" x2="0%" y2="100%" id="linearGradient-2">
            <stop stop-color="#FFA32A" offset="0%"></stop>
            <stop stop-color="#FE9C24" offset="21.8862987%"></stop>
            <stop stop-color="#FE941D" offset="40.220465%"></stop>
            <stop stop-color="#FF7C01" offset="100%"></stop>
        </linearGradient>
        <polygon id="path-3" points="164 116.201172 182.839844 108.634766 182.839844 108.380859 164 100.585938 164 95 189.1875 105.943359 189.1875 110.742188 164 121.736328"></polygon>
        <filter x="-115.1%" y="-123.4%" width="330.3%" height="316.9%" filterUnits="objectBoundingBox" id="filter-4">
            <feOffset dx="0" dy="-4" in="SourceAlpha" result="shadowOffsetOuter1"></feOffset>
            <feGaussianBlur stdDeviation="9" in="shadowOffsetOuter1" result="shadowBlurOuter1"></feGaussianBlur>
            <feColorMatrix values="0 0 0 0 0.329411765   0 0 0 0 0.670588235   0 0 0 0 1  0 0 0 0.148352582 0" type="matrix" in="shadowBlurOuter1"></feColorMatrix>
        </filter>
        <polygon id="path-5" points="28.7167969 99.65625 9.87695312 107.222656 9.87695312 107.451172 28.7167969 115.246094 28.7167969 120.832031 3.52929688 109.888672 3.52929688 105.089844 28.7167969 94.0957031"></polygon>
        <filter x="-115.1%" y="-123.4%" width="330.3%" height="316.9%" filterUnits="objectBoundingBox" id="filter-6">
            <feOffset dx="0" dy="-4" in="SourceAlpha" result="shadowOffsetOuter1"></feOffset>
            <feGaussianBlur stdDeviation="9" in="shadowOffsetOuter1" result="shadowBlurOuter1"></feGaussianBlur>
            <feColorMatrix values="0 0 0 0 0.329411765   0 0 0 0 0.670588235   0 0 0 0 1  0 0 0 0.148352582 0" type="matrix" in="shadowBlurOuter1"></feColorMatrix>
        </filter>
        <path d="M83.671875,114 L83.671875,97.5625 L86.890625,97.5625 L86.890625,100.359375 L86.96875,100.359375 C87.515625,98.4375 88.984375,97.296875 90.921875,97.296875 C91.40625,97.296875 91.828125,97.375 92.078125,97.421875 L92.078125,100.5625 C91.8125,100.453125 91.21875,100.375 90.5625,100.375 C88.390625,100.375 87.046875,101.828125 87.046875,104.15625 L87.046875,114 L83.671875,114 Z M94.171875,114 L94.171875,97.5625 L97.390625,97.5625 L97.390625,100.3125 L97.46875,100.3125 C98.359375,98.4375 100.109375,97.28125 102.640625,97.28125 C106.265625,97.28125 108.34375,99.59375 108.34375,103.359375 L108.34375,114 L104.953125,114 L104.953125,104.015625 C104.953125,101.546875 103.796875,100.1875 101.453125,100.1875 C99.078125,100.1875 97.546875,101.875 97.546875,104.421875 L97.546875,114 L94.171875,114 Z M111.703125,114 L111.703125,97.5625 L115.078125,97.5625 L115.078125,114 L111.703125,114 Z M113.390625,94.90625 C112.3125,94.90625 111.4375,94.03125 111.4375,92.96875 C111.4375,91.890625 112.3125,91.03125 113.390625,91.03125 C114.46875,91.03125 115.328125,91.890625 115.328125,92.96875 C115.328125,94.03125 114.46875,94.90625 113.390625,94.90625 Z M125.40625,99.984375 C123.046875,99.984375 121.390625,101.78125 121.21875,104.265625 L129.4375,104.265625 C129.359375,101.75 127.765625,99.984375 125.40625,99.984375 Z M129.421875,109.171875 L132.625,109.171875 C132.15625,112.171875 129.3125,114.3125 125.546875,114.3125 C120.71875,114.3125 117.796875,111.046875 117.796875,105.859375 C117.796875,100.703125 120.765625,97.265625 125.40625,97.265625 C129.96875,97.265625 132.8125,100.484375 132.8125,105.46875 L132.8125,106.625 L121.203125,106.625 L121.203125,106.828125 C121.203125,109.6875 122.921875,111.578125 125.625,111.578125 C127.546875,111.578125 128.96875,110.609375 129.421875,109.171875 Z M143.234375,118.8125 L140.234375,118.8125 L148.234375,91.453125 L151.234375,91.453125 L143.234375,118.8125 Z" id="path-7"></path>
        <filter x="-42.9%" y="-118.8%" width="185.8%" height="308.8%" filterUnits="objectBoundingBox" id="filter-8">
            <feOffset dx="0" dy="-4" in="SourceAlpha" result="shadowOffsetOuter1"></feOffset>
            <feGaussianBlur stdDeviation="9" in="shadowOffsetOuter1" result="shadowBlurOuter1"></feGaussianBlur>
            <feColorMatrix values="0 0 0 0 0.329411765   0 0 0 0 0.670588235   0 0 0 0 1  0 0 0 0.148352582 0" type="matrix" in="shadowBlurOuter1"></feColorMatrix>
        </filter>
    </defs>
    <g id="Page-1" stroke="none" stroke-width="1" fill="none" fill-rule="evenodd">
        <g id="Color-palette" transform="translate(-180.000000, -619.000000)">
            <g id="brand" transform="translate(194.000000, 568.000000)">
                <g id="Group" transform="translate(33.000000, 7.000000)" fill="url(#linearGradient-1)" opacity="0.962588356">
                    <path d="M3.452844,44 L39.1928892,44 C41.4020282,44 43.1928892,45.790861 43.1928892,48 L43.1928892,52.062002 C43.1928892,54.2381237 41.4532471,56.0150119 39.2776137,56.0611046 L15.0223566,56.574973 C12.8467231,56.6210657 11.107081,58.3979539 11.107081,60.5740756 L11.107081,66.2984551 C11.107081,67.0573952 11.3229922,67.8006742 11.7296029,68.4415001 L13.934067,71.9157757 C15.5849213,74.5175522 18.4520681,76.0939244 21.5333926,76.0939244 L43.1928892,76.0939244 L43.1928892,87.0618426 L23.628372,87.0618426 L32.3184286,100.569998 C33.9747074,103.144581 36.8261142,104.700705 39.8874434,104.700705 L43.1928892,104.700705 L43.1928892,112.514645 C43.1928892,113.343072 42.5213164,114.014645 41.6928892,114.014645 C41.1809295,114.014645 40.7043256,113.753533 40.4287452,113.322073 L0.0817932241,50.1531411 C-1.10735378,48.2913612 -0.562077044,45.8180962 1.29970289,44.6289492 C1.94273994,44.2182317 2.68983319,44 3.452844,44 Z" id="Path-4"></path>
                </g>
                <g id="&gt;">
                    <use fill="black" fill-opacity="1" filter="url(#filter-4)" xlink:href="#path-3"></use>
                    <use fill="#1028F6" fill-rule="evenodd" xlink:href="#path-3"></use>
                    <use fill="url(#linearGradient-2)" fill-rule="evenodd" xlink:href="#path-3"></use>
                </g>
                <g id="&lt;">
                    <use fill="black" fill-opacity="1" filter="url(#filter-6)" xlink:href="#path-5"></use>
                    <use fill="#1028F6" fill-rule="evenodd" xlink:href="#path-5"></use>
                    <use fill="url(#linearGradient-2)" fill-rule="evenodd" xlink:href="#path-5"></use>
                </g>
                <g id="rnie-/">
                    <use fill="black" fill-opacity="1" filter="url(#filter-8)" xlink:href="#path-7"></use>
                    <use fill="#1028F6" fill-rule="evenodd" xlink:href="#path-7"></use>
                    <use fill="url(#linearGradient-2)" fill-rule="evenodd" xlink:href="#path-7"></use>
                </g>
            </g>
        </g>
    </g>
</svg>