<?xml version="1.0" encoding="UTF-8"?>
<svg width="917px" height="148px" viewBox="0 0 917 148" version="1.1" xmlns="http://www.w3.org/2000/svg" xmlns:xlink="http://www.w3.org/1999/xlink">
    <!-- Generator: Sketch 52.3 (67297) - http://www.bohemiancoding.com/sketch -->
    <title>logo</title>
    <desc>Created with Sketch.</desc>
    <defs>
        <linearGradient x1="50%" y1="0%" x2="50%" y2="100%" id="linearGradient-1">
            <stop stop-color="#FFFFFF" offset="0%"></stop>
            <stop stop-color="#FFFFFF" offset="53.4113241%"></stop>
            <stop stop-color="#FFFFFF" offset="81.4780527%"></stop>
            <stop stop-color="#FFFFFF" offset="100%"></stop>
        </linearGradient>
        <linearGradient x1="50%" y1="0%" x2="50%" y2="100%" id="linearGradient-2">
            <stop stop-color="#FCFCFD" offset="0%"></stop>
            <stop stop-color="#FFFFFF" offset="34.420159%"></stop>
            <stop stop-color="#FFFFFF" offset="49.478414%"></stop>
            <stop stop-color="#FFFFFF" offset="63.8367052%"></stop>
            <stop stop-color="#FFFFFF" offset="82.6454118%"></stop>
            <stop stop-color="#FFFFFF" offset="100%"></stop>
        </linearGradient>
    </defs>
    <g id="Page-1" stroke="none" stroke-width="1" fill="none" fill-rule="evenodd">
        <g id="Color-palette" transform="translate(-68.000000, -352.000000)">
            <g id="logo" transform="translate(68.000000, 352.000000)">
                <g id="ios-star">
                    <path d="M76.0421452,147.530726 C57.4270814,148.180753 0.711834934,93.9011965 0.111930366,76.7228393 C-0.487974202,59.5444821 53.9800958,1.38246848 70.9176842,0.791017648 C87.8552726,0.199566821 146.341008,57.0840009 146.847899,71.5989038 C147.35479,86.1138067 94.6572091,146.880698 76.0421452,147.530726 Z M70.442864,26.5554877 L60.9971238,57.4519061 L29.9857693,58.2367547 C28.4733109,58.2796102 27.216707,59.2964004 26.773637,60.7456545 C26.3305669,62.1949087 26.8037715,63.7405679 28.0336925,64.6218745 L53.3044001,82.6143189 L43.7944469,113.720774 C43.229372,115.569098 44.2858943,117.545736 46.1422741,118.113303 C46.3321312,118.17135 46.5495047,118.214842 46.7311091,118.224432 C47.4822846,118.408162 48.4077393,118.323638 49.5450971,117.545993 L75.2815875,97.6476187 L100.759561,116.09387 C101.983061,116.99618 103.670702,116.983918 104.909874,116.0996 C105.539091,115.625935 106.092181,115.174929 106.310505,114.460804 C106.522408,113.767682 106.41422,112.838895 106.193207,112.128249 L96.0292629,81.9197688 L121.347488,62.5595557 C121.949189,62.100445 122.537144,61.3844953 122.749047,60.6913738 C122.967371,59.9772485 122.782127,59.3005055 122.497829,58.5705106 C121.971423,57.1234202 120.593835,56.1969662 119.05386,56.2543758 L87.6169151,57.2995427 L77.1741661,26.5694499 L76.8330033,25.7991025 C76.4092909,25.0724173 75.7746263,24.2812358 74.909722,24.0168013 C73.0533421,23.4492344 71.0079389,24.7071635 70.442864,26.5554877 Z" id="Oval-2" fill="url(#linearGradient-1)"></path>
                    <text id="StarUp-Solutions" fill="url(#linearGradient-2)" font-family="SFProDisplay-Semibold, SF Pro Display" font-size="80" font-weight="500">
                        <tspan x="167.09375" y="119.890625">STARUP SOLUTIONS</tspan>
                    </text>
                </g>
            </g>
        </g>
    </g>
</svg>